<svg width="59" height="59" viewBox="0 0 59 59" fill="none" xmlns="http://www.w3.org/2000/svg">
<g style="mix-blend-mode:exclusion">
<path fill-rule="evenodd" clip-rule="evenodd" d="M32.647 57.6976L57.6976 32.647C59.4341 30.9105 59.4341 28.0895 57.6976 26.353L32.647 1.30237C30.9105 -0.434123 28.0895 -0.434123 26.353 1.30237L1.30237 26.353C-0.434123 28.0895 -0.434123 30.9105 1.30237 32.647L26.353 57.6976C28.0895 59.4341 30.9105 59.4341 32.647 57.6976ZM34.7458 25.5002C35.198 24.6582 35.4545 23.6955 35.4545 22.6728C35.4545 19.3678 32.7752 16.6886 29.4702 16.6886C26.1652 16.6886 23.4859 19.3678 23.4859 22.6728C23.4859 23.6803 23.7349 24.6296 24.1746 25.4626C22.0965 27.0442 20.7514 29.537 20.7597 32.3377C20.7737 37.1012 24.6976 40.9514 29.4611 40.9375C34.2246 40.9237 38.1257 37.0507 38.1117 32.2872C38.1036 29.5267 36.7824 27.073 34.7458 25.5002ZM33.2348 21.1125C34.1168 23.1852 33.151 25.5654 31.0777 26.4289C30.8256 26.5339 30.5688 26.6116 30.3105 26.6634C30.3662 26.7826 30.3973 26.9155 30.3973 27.0557V32.8714H31.3245C31.8365 32.8714 32.2516 33.2865 32.2516 33.7985C32.2516 34.3106 31.8365 34.7257 31.3245 34.7257H30.3973V36.58H31.3245C31.8365 36.58 32.2516 36.9951 32.2516 37.5071C32.2516 38.0191 31.8365 38.4342 31.3245 38.4342H29.4702C28.9581 38.4342 28.543 38.0191 28.543 37.5071C28.543 37.4371 28.5508 37.369 28.5655 37.3034C28.5508 37.2379 28.543 37.1697 28.543 37.0997V33.7985V27.0557C28.543 26.9093 28.577 26.7708 28.6374 26.6477C27.3798 26.3725 26.268 25.5118 25.7265 24.2395C24.8445 22.1668 25.8103 19.7866 27.8837 18.9231C29.9571 18.0596 32.3528 19.0399 33.2348 21.1125ZM30.7267 20.6952C31.2553 21.367 31.1398 22.3346 30.4687 22.8564C29.7976 23.3783 28.8251 23.2567 28.2965 22.585C27.768 21.9132 27.8835 20.9456 28.5546 20.4238C29.2256 19.9019 30.1982 20.0234 30.7267 20.6952Z" fill="#B1B1B1"/>
</g>
</svg>
